<svg width="20" height="21" viewBox="0 0 20 21" fill="none" xmlns="http://www.w3.org/2000/svg">
<g clip-path="url(#clip0_1190_15985)">
<path d="M11.0835 1.92871C11.4501 1.42199 11.9239 1.00241 12.4713 0.69991C13.0187 0.39741 13.6261 0.219445 14.2502 0.178711C14.3046 0.746641 14.2441 1.31971 14.0723 1.86376C13.9004 2.4078 13.6209 2.91169 13.2502 3.34538C12.9116 3.81691 12.4585 4.19442 11.9337 4.44228C11.4088 4.69015 10.8294 4.80019 10.2502 4.76204C10.1901 4.25796 10.2329 3.74692 10.3762 3.25989C10.5194 2.77286 10.76 2.31998 11.0835 1.92871ZM6.91683 5.01204C4.5835 5.01204 2.0835 7.09538 2.0835 11.0954C2.0835 15.1787 5.00016 20.1787 7.3335 20.1787C8.16683 20.1787 9.41683 19.3454 10.6668 19.3454C11.9168 19.3454 12.8335 20.0954 14.0002 20.0954C16.5835 20.0954 18.4168 14.762 18.4168 14.762C17.6205 14.4184 16.943 13.848 16.4688 13.1218C15.9946 12.3957 15.7446 11.546 15.7502 10.6787C15.7507 9.91852 15.9511 9.17184 16.3314 8.51362C16.7117 7.8554 17.2585 7.3088 17.9168 6.92871C17.4896 6.28811 16.9052 5.76784 16.2195 5.41767C15.5337 5.0675 14.7696 4.89914 14.0002 4.92871C12.3335 4.92871 11.0835 5.84538 10.4168 5.84538C9.66683 5.84538 8.41683 5.01204 6.91683 5.01204Z" fill="#222222"/>
</g>
<defs>
<clipPath id="clip0_1190_15985">
<rect width="20" height="20" fill="white" transform="translate(0 0.178711)"/>
</clipPath>
</defs>
</svg>
