<!-- <svg viewBox="0 0 12 7" fill="red" transform="rotate(180)" data-chevron-svg="true"><path d="M11.7071 1.70711C12.0976 1.31658 12.0976 0.683417 11.7071 0.292893C11.3166 -0.0976311 10.6834 -0.0976311 10.2929 0.292893L11.7071 1.70711ZM6 6L5.29289 6.70711C5.68342 7.09763 6.31658 7.09763 6.70711 6.70711L6 6ZM1.70711 0.292893C1.31658 -0.0976311 0.683417 -0.0976311 0.292893 0.292893C-0.0976315 0.683417 -0.0976315 1.31658 0.292893 1.70711L1.70711 0.292893ZM10.2929 0.292893L5.29289 5.29289L6.70711 6.70711L11.7071 1.70711L10.2929 0.292893ZM6.70711 5.29289L1.70711 0.292893L0.292893 1.70711L5.29289 6.70711L6.70711 5.29289Z"></path></svg> -->

<svg width="256px" height="256px" transform="rotate(180)" viewBox="0 0 24 24" fill="none" xmlns="http://www.w3.org/2000/svg"><g id="SVGRepo_bgCarrier" stroke-width="0"></g><g id="SVGRepo_tracerCarrier" stroke-linecap="round" stroke-linejoin="round"></g><g id="SVGRepo_iconCarrier"> <path fill-rule="evenodd" clip-rule="evenodd" d="M12.7071 14.7071C12.3166 15.0976 11.6834 15.0976 11.2929 14.7071L6.29289 9.70711C5.90237 9.31658 5.90237 8.68342 6.29289 8.29289C6.68342 7.90237 7.31658 7.90237 7.70711 8.29289L12 12.5858L16.2929 8.29289C16.6834 7.90237 17.3166 7.90237 17.7071 8.29289C18.0976 8.68342 18.0976 9.31658 17.7071 9.70711L12.7071 14.7071Z" fill="#FFFFFF99"></path> </g></svg>
