<svg width="20" height="21" viewBox="0 0 20 21" fill="none" xmlns="http://www.w3.org/2000/svg">
<path d="M19.0688 3.85371C18.8141 3.32022 18.415 2.86878 17.9168 2.55061C17.4186 2.23245 16.8411 2.06031 16.25 2.05371H3.75C3.15888 2.06031 2.58145 2.23245 2.08322 2.55061C1.58498 2.86878 1.1859 3.32022 0.93125 3.85371C0.731957 4.26713 0.627337 4.71977 0.625 5.17871V15.1787C0.625 16.0075 0.95424 16.8024 1.54029 17.3884C1.83047 17.6786 2.17497 17.9088 2.55411 18.0658C2.93326 18.2229 3.33962 18.3037 3.75 18.3037H16.25C17.0788 18.3037 17.8737 17.9745 18.4597 17.3884C19.0458 16.8024 19.375 16.0075 19.375 15.1787V5.17871C19.3727 4.71977 19.268 4.26713 19.0688 3.85371ZM3.75 3.30371H16.25C16.6495 3.30641 17.0375 3.43792 17.3563 3.67871L11.2188 8.92871C10.8803 9.22162 10.4476 9.38282 10 9.38282C9.55238 9.38282 9.11973 9.22162 8.78125 8.92871L2.64375 3.67871C2.96254 3.43792 3.3505 3.30641 3.75 3.30371ZM18.125 15.1787C18.125 15.676 17.9275 16.1529 17.5758 16.5045C17.2242 16.8562 16.7473 17.0537 16.25 17.0537H3.75C3.25272 17.0537 2.77581 16.8562 2.42417 16.5045C2.07254 16.1529 1.875 15.676 1.875 15.1787V5.17871C1.87629 5.02253 1.89729 4.86713 1.9375 4.71621L7.96875 9.88496C8.53308 10.3727 9.25409 10.6411 10 10.6411C10.7459 10.6411 11.4669 10.3727 12.0312 9.88496L18.0625 4.71621C18.1027 4.86713 18.1237 5.02253 18.125 5.17871V15.1787Z" fill="#222222"/>
</svg>
