<svg width="24" height="25" viewBox="0 0 24 25" fill="none" xmlns="http://www.w3.org/2000/svg">
<path d="M11.9999 16.7401C9.60992 16.7401 7.66992 14.8001 7.66992 12.4101C7.66992 10.0201 9.60992 8.08008 11.9999 8.08008C14.3899 8.08008 16.3299 10.0201 16.3299 12.4101C16.3299 14.8001 14.3899 16.7401 11.9999 16.7401ZM11.9999 9.58008C10.4399 9.58008 9.16992 10.8501 9.16992 12.4101C9.16992 13.9701 10.4399 15.2401 11.9999 15.2401C13.5599 15.2401 14.8299 13.9701 14.8299 12.4101C14.8299 10.8501 13.5599 9.58008 11.9999 9.58008Z" fill="#626262"/>
<path d="M12.0001 21.4306C8.24008 21.4306 4.69008 19.2306 2.25008 15.4106C1.19008 13.7606 1.19008 11.0706 2.25008 9.41062C4.70008 5.59063 8.25008 3.39062 12.0001 3.39062C15.7501 3.39062 19.3001 5.59063 21.7401 9.41062C22.8001 11.0606 22.8001 13.7506 21.7401 15.4106C19.3001 19.2306 15.7501 21.4306 12.0001 21.4306ZM12.0001 4.89062C8.77008 4.89062 5.68008 6.83063 3.52008 10.2206C2.77008 11.3906 2.77008 13.4306 3.52008 14.6006C5.68008 17.9906 8.77008 19.9306 12.0001 19.9306C15.2301 19.9306 18.3201 17.9906 20.4801 14.6006C21.2301 13.4306 21.2301 11.3906 20.4801 10.2206C18.3201 6.83063 15.2301 4.89062 12.0001 4.89062Z" fill="#626262"/>
</svg>
