<svg width="20" height="21" viewBox="0 0 20 21" fill="none" xmlns="http://www.w3.org/2000/svg">
<path d="M15.075 15.8033C16.8375 14.1596 17.6188 11.4283 17.15 8.80957H10.1562V11.7033H14.1375C14.0602 12.1572 13.8884 12.5899 13.6332 12.9732C13.378 13.3565 13.0452 13.6819 12.6562 13.9283L15.075 15.8033Z" fill="#4285F4"/>
<path d="M3.5127 13.4975C4.02642 14.5098 4.76326 15.3924 5.66768 16.0786C6.5721 16.7648 7.6205 17.2367 8.73383 17.4587C9.84717 17.6808 10.9964 17.6472 12.0949 17.3605C13.1933 17.0738 14.2124 16.5415 15.0752 15.8037L12.6564 13.9287C12.0828 14.3006 11.4316 14.5362 10.7528 14.6173C10.074 14.6984 9.38568 14.6229 8.74059 14.3966C8.0955 14.1703 7.51084 13.7992 7.03147 13.3118C6.55209 12.8245 6.19076 12.2337 5.9752 11.585L3.5127 13.4975Z" fill="#34A853"/>
<path d="M5.97476 11.5852C5.66226 10.6102 5.66226 9.71016 5.97476 8.73516L3.51226 6.81641C2.99863 7.85622 2.73145 9.0004 2.73145 10.1602C2.73145 11.3199 2.99863 12.4641 3.51226 13.5039L5.97476 11.5852Z" fill="#FBBC02"/>
<path d="M5.9752 8.73467C6.8377 6.03467 10.5064 4.47217 12.9689 6.77842L15.1189 4.67217C14.277 3.89574 13.2658 3.32607 12.1655 3.0083C11.0651 2.69054 9.90593 2.6334 8.77969 2.84142C7.65344 3.04945 6.59113 3.51692 5.67691 4.20678C4.7627 4.89665 4.02172 5.78996 3.5127 6.81592L5.9752 8.73467Z" fill="#EA4335"/>
</svg>
