<svg width="64" height="64" viewBox="0 0 64 64" fill="none" xmlns="http://www.w3.org/2000/svg">
<rect x="1" y="1" width="62" height="62" rx="31" stroke="#1D78FF" stroke-width="2"/>
<path d="M38.25 43.5625H25.75C21.1875 43.5625 18.5625 40.9375 18.5625 36.375V27.625C18.5625 23.0625 21.1875 20.4375 25.75 20.4375H38.25C42.8125 20.4375 45.4375 23.0625 45.4375 27.625V36.375C45.4375 40.9375 42.8125 43.5625 38.25 43.5625ZM25.75 22.3125C22.175 22.3125 20.4375 24.05 20.4375 27.625V36.375C20.4375 39.95 22.175 41.6875 25.75 41.6875H38.25C41.825 41.6875 43.5625 39.95 43.5625 36.375V27.625C43.5625 24.05 41.825 22.3125 38.25 22.3125H25.75Z" fill="#1D78FF"/>
<path d="M31.9995 33.087C30.9495 33.087 29.887 32.762 29.0745 32.0995L25.162 28.9745C24.762 28.6495 24.687 28.062 25.012 27.662C25.337 27.262 25.9245 27.187 26.3245 27.512L30.237 30.637C31.187 31.3995 32.7995 31.3995 33.7495 30.637L37.662 27.512C38.062 27.187 38.662 27.2495 38.9745 27.662C39.2995 28.062 39.237 28.662 38.8245 28.9745L34.912 32.0995C34.112 32.762 33.0495 33.087 31.9995 33.087Z" fill="#1D78FF"/>
</svg>
