<svg width="48" height="48" viewBox="0 0 48 48" fill="none" xmlns="http://www.w3.org/2000/svg">
<g clip-path="url(#clip0_530_2697)">
<circle cx="24" cy="24" r="24" fill="white" fill-opacity="0.13"/>
<path d="M29 34.75H19C15.35 34.75 13.25 32.65 13.25 29V24C13.25 20.35 15.35 18.25 19 18.25H29C32.65 18.25 34.75 20.35 34.75 24V29C34.75 32.65 32.65 34.75 29 34.75ZM19 19.75C16.14 19.75 14.75 21.14 14.75 24V29C14.75 31.86 16.14 33.25 19 33.25H29C31.86 33.25 33.25 31.86 33.25 29V24C33.25 21.14 31.86 19.75 29 19.75H19Z" fill="white"/>
<path d="M30 17.25H18C17.59 17.25 17.25 16.91 17.25 16.5C17.25 16.09 17.59 15.75 18 15.75H30C30.41 15.75 30.75 16.09 30.75 16.5C30.75 16.91 30.41 17.25 30 17.25Z" fill="white"/>
<path d="M27 14.75H21C20.59 14.75 20.25 14.41 20.25 14C20.25 13.59 20.59 13.25 21 13.25H27C27.41 13.25 27.75 13.59 27.75 14C27.75 14.41 27.41 14.75 27 14.75Z" fill="white"/>
<path d="M22.25 30.1389C21.86 30.1389 21.49 30.0489 21.17 29.8589C20.43 29.4289 20 28.559 20 27.459V24.6789C20 23.5789 20.43 22.709 21.17 22.279C21.92 21.849 22.89 21.919 23.84 22.469L26.24 23.8589C27.19 24.4089 27.73 25.2189 27.73 26.0689C27.73 26.9189 27.19 27.739 26.24 28.279L23.84 29.6689C23.3 29.9789 22.76 30.1389 22.25 30.1389ZM22.26 23.4989C22.13 23.4989 22.02 23.5289 21.92 23.5789C21.65 23.7389 21.5 24.1389 21.5 24.6789V27.459C21.5 27.999 21.65 28.4089 21.92 28.5589C22.19 28.7089 22.61 28.6489 23.09 28.3689L25.49 26.9789C25.96 26.7089 26.23 26.3689 26.23 26.0589C26.23 25.7489 25.96 25.4189 25.49 25.1389L23.09 23.7489C22.78 23.5889 22.5 23.4989 22.26 23.4989Z" fill="white"/>
</g>
<defs>
<clipPath id="clip0_530_2697">
<rect width="48" height="48" rx="24" fill="white"/>
</clipPath>
</defs>
</svg>
