<svg width="48" height="48" viewBox="0 0 48 48" fill="none" xmlns="http://www.w3.org/2000/svg">
<rect width="48" height="48" rx="24" fill="white" fill-opacity="0.13"/>
<path d="M21.5699 30.3201C21.3799 30.3201 21.1899 30.2501 21.0399 30.1001L14.9699 24.0301C14.6799 23.7401 14.6799 23.2601 14.9699 22.9701L21.0399 16.9001C21.3299 16.6101 21.8099 16.6101 22.0999 16.9001C22.3899 17.1901 22.3899 17.6701 22.0999 17.9601L16.5599 23.5001L22.0999 29.0401C22.3899 29.3301 22.3899 29.8101 22.0999 30.1001C21.9599 30.2501 21.7599 30.3201 21.5699 30.3201Z" fill="white"/>
<path d="M32.4999 24.25H15.6699C15.2599 24.25 14.9199 23.91 14.9199 23.5C14.9199 23.09 15.2599 22.75 15.6699 22.75H32.4999C32.9099 22.75 33.2499 23.09 33.2499 23.5C33.2499 23.91 32.9099 24.25 32.4999 24.25Z" fill="white"/>
</svg>
