<svg width="48" height="48" viewBox="0 0 48 48" fill="none" xmlns="http://www.w3.org/2000/svg">
<g clip-path="url(#clip0_530_2159)">
<circle cx="24" cy="24" r="24" fill="white" fill-opacity="0.13"/>
<path d="M27 34.75H21C15.57 34.75 13.25 32.43 13.25 27V21C13.25 15.57 15.57 13.25 21 13.25H27C32.43 13.25 34.75 15.57 34.75 21V27C34.75 32.43 32.43 34.75 27 34.75ZM21 14.75C16.39 14.75 14.75 16.39 14.75 21V27C14.75 31.61 16.39 33.25 21 33.25H27C31.61 33.25 33.25 31.61 33.25 27V21C33.25 16.39 31.61 14.75 27 14.75H21Z" fill="white"/>
<path d="M29.4999 29.8301H27.6499C27.2399 29.8301 26.8999 29.4901 26.8999 29.0801C26.8999 28.6701 27.2399 28.3301 27.6499 28.3301H29.4999C29.9099 28.3301 30.2499 28.6701 30.2499 29.0801C30.2499 29.4901 29.9099 29.8301 29.4999 29.8301Z" fill="white"/>
<path d="M24.97 29.8301H18.5C18.09 29.8301 17.75 29.4901 17.75 29.0801C17.75 28.6701 18.09 28.3301 18.5 28.3301H24.97C25.38 28.3301 25.72 28.6701 25.72 29.0801C25.72 29.4901 25.39 29.8301 24.97 29.8301Z" fill="white"/>
<path d="M29.5002 26.0701H23.9702C23.5602 26.0701 23.2202 25.7301 23.2202 25.3201C23.2202 24.9101 23.5602 24.5701 23.9702 24.5701H29.5002C29.9102 24.5701 30.2502 24.9101 30.2502 25.3201C30.2502 25.7301 29.9102 26.0701 29.5002 26.0701Z" fill="white"/>
<path d="M21.27 26.0701H18.5C18.09 26.0701 17.75 25.7301 17.75 25.3201C17.75 24.9101 18.09 24.5701 18.5 24.5701H21.27C21.68 24.5701 22.02 24.9101 22.02 25.3201C22.02 25.7301 21.68 26.0701 21.27 26.0701Z" fill="white"/>
</g>
<defs>
<clipPath id="clip0_530_2159">
<rect width="48" height="48" rx="24" fill="white"/>
</clipPath>
</defs>
</svg>
