<svg width="48" height="48" viewBox="0 0 48 48" fill="none" xmlns="http://www.w3.org/2000/svg">
<circle cx="24" cy="24" r="24" fill="white" fill-opacity="0.13"/>
<path d="M31.6901 19.35C31.4401 19.02 30.9701 18.95 30.6401 19.2C30.3101 19.45 30.2401 19.92 30.4901 20.25C31.5701 21.69 32.1401 23.37 32.1401 25.11C32.1401 29.6 28.4901 33.25 24.0001 33.25C19.5101 33.25 15.8601 29.6 15.8601 25.11C15.8601 20.62 19.5101 16.98 24.0001 16.98C24.5801 16.98 25.1701 17.05 25.8101 17.2C25.8401 17.21 25.8701 17.2 25.9101 17.2C25.9301 17.2 25.9601 17.22 25.9801 17.22C26.0101 17.22 26.0301 17.21 26.0601 17.21C26.1001 17.21 26.1301 17.2 26.1601 17.19C26.2101 17.18 26.2601 17.16 26.3101 17.13C26.3401 17.11 26.3801 17.1 26.4101 17.08C26.4201 17.07 26.4401 17.07 26.4501 17.06C26.4801 17.04 26.4901 17.01 26.5101 16.99C26.5501 16.95 26.5801 16.92 26.6101 16.87C26.6401 16.83 26.6501 16.78 26.6701 16.74C26.6801 16.71 26.7001 16.68 26.7101 16.65C26.7101 16.63 26.7101 16.62 26.7101 16.6C26.7201 16.55 26.7201 16.5 26.7101 16.45C26.7101 16.4 26.7101 16.36 26.7001 16.31C26.6901 16.27 26.6701 16.23 26.6501 16.18C26.6301 16.13 26.6101 16.08 26.5801 16.04C26.5701 16.02 26.5701 16.01 26.5601 16L24.5801 13.53C24.3201 13.21 23.8501 13.16 23.5301 13.41C23.2101 13.67 23.1601 14.14 23.4101 14.46L24.2301 15.48C24.1501 15.48 24.0701 15.47 23.9901 15.47C18.6801 15.47 14.3501 19.79 14.3501 25.11C14.3501 30.43 18.6701 34.75 23.9901 34.75C29.3101 34.75 33.6301 30.43 33.6301 25.11C33.6401 23.04 32.9601 21.05 31.6901 19.35Z" fill="white"/>
<path d="M21.54 28.6701C21.13 28.6701 20.79 28.3301 20.79 27.9201V24.5301L20.6 24.7501C20.32 25.0601 19.85 25.0801 19.54 24.8101C19.23 24.5301 19.21 24.0601 19.48 23.7501L20.98 22.0801C21.19 21.8501 21.52 21.7701 21.81 21.8801C22.1 21.9901 22.29 22.2701 22.29 22.5801V27.9301C22.29 28.3401 21.96 28.6701 21.54 28.6701Z" fill="white"/>
<path d="M26 28.6701C24.48 28.6701 23.25 27.4401 23.25 25.9201V24.5701C23.25 23.0501 24.48 21.8201 26 21.8201C27.52 21.8201 28.75 23.0501 28.75 24.5701V25.9201C28.75 27.4401 27.52 28.6701 26 28.6701ZM26 23.3301C25.31 23.3301 24.75 23.8901 24.75 24.5801V25.9301C24.75 26.6201 25.31 27.1801 26 27.1801C26.69 27.1801 27.25 26.6201 27.25 25.9301V24.5801C27.25 23.8901 26.69 23.3301 26 23.3301Z" fill="white"/>
</svg>
