<svg width="48" height="48" viewBox="0 0 48 48" fill="none" xmlns="http://www.w3.org/2000/svg">
<g clip-path="url(#clip0_530_2325)">
<circle cx="24" cy="24" r="24" fill="white" fill-opacity="0.13"/>
<path d="M18.3098 32.0899C17.7398 32.0899 17.1798 31.9399 16.6598 31.6399C15.6198 31.0399 15.0098 29.9799 15.0098 28.7799V19.2099C15.0098 18.0199 15.6298 16.9499 16.6598 16.3499C17.6998 15.7499 18.9297 15.7499 19.9597 16.3499L28.2498 21.1299C29.2798 21.7299 29.8997 22.7999 29.8997 23.9899C29.8997 25.1799 29.2798 26.2499 28.2498 26.8499L19.9597 31.6299C19.4397 31.9399 18.8798 32.0899 18.3098 32.0899ZM18.3098 17.4099C17.9998 17.4099 17.6898 17.4899 17.4098 17.6499C16.8498 17.9799 16.5098 18.5599 16.5098 19.2099V28.7799C16.5098 29.4299 16.8498 30.0099 17.4098 30.3399C17.9698 30.6599 18.6497 30.6699 19.2097 30.3399L27.4998 25.5599C28.0598 25.2299 28.3997 24.6499 28.3997 23.9999C28.3997 23.3499 28.0598 22.7699 27.4998 22.4399L19.2097 17.6599C18.9297 17.4999 18.6198 17.4099 18.3098 17.4099Z" fill="white"/>
<path d="M32.2402 30.9303C31.8302 30.9303 31.4902 30.5903 31.4902 30.1803V17.8203C31.4902 17.4103 31.8302 17.0703 32.2402 17.0703C32.6502 17.0703 32.9902 17.4103 32.9902 17.8203V30.1803C32.9902 30.5903 32.6602 30.9303 32.2402 30.9303Z" fill="white"/>
</g>
<defs>
<clipPath id="clip0_530_2325">
<rect width="48" height="48" rx="24" fill="white"/>
</clipPath>
</defs>
</svg>
