<svg width="48" height="48" viewBox="0 0 48 48" fill="none" xmlns="http://www.w3.org/2000/svg">
<circle cx="24" cy="24" r="24" fill="white" fill-opacity="0.13"/>
<path d="M21.54 28.6701C21.13 28.6701 20.79 28.3301 20.79 27.9201V24.5301L20.6 24.7501C20.32 25.0601 19.85 25.0801 19.54 24.8101C19.23 24.5301 19.21 24.0601 19.48 23.7501L20.98 22.0801C21.19 21.8501 21.52 21.7701 21.81 21.8801C22.1 21.9901 22.29 22.2701 22.29 22.5801V27.9301C22.29 28.3401 21.96 28.6701 21.54 28.6701Z" fill="white"/>
<path d="M24.0001 15.48C23.9201 15.48 23.8401 15.49 23.7601 15.49L24.5801 14.47C24.8401 14.15 24.7901 13.67 24.4601 13.42C24.1401 13.16 23.6701 13.21 23.4101 13.54L21.4401 16C21.4301 16.01 21.4301 16.02 21.4201 16.04C21.3901 16.08 21.3701 16.13 21.3501 16.17C21.3301 16.22 21.3101 16.26 21.3001 16.3C21.2901 16.35 21.2901 16.39 21.2901 16.44C21.2901 16.49 21.2901 16.54 21.2901 16.59C21.2901 16.61 21.2901 16.62 21.2901 16.64C21.3001 16.67 21.3201 16.69 21.3301 16.73C21.3501 16.78 21.3601 16.82 21.3901 16.86C21.4201 16.9 21.4501 16.94 21.4901 16.98C21.5101 17 21.5301 17.03 21.5501 17.05C21.5601 17.06 21.5801 17.06 21.5901 17.07C21.6201 17.09 21.6501 17.11 21.6901 17.12C21.7401 17.15 21.7901 17.17 21.8401 17.18C21.8801 17.2 21.9101 17.2 21.9501 17.2C21.9801 17.2 22.0001 17.21 22.0301 17.21C22.0501 17.21 22.0801 17.2 22.1001 17.19C22.1301 17.19 22.1601 17.19 22.2001 17.19C22.8401 17.04 23.4401 16.97 24.0101 16.97C28.5001 16.97 32.1501 20.62 32.1501 25.11C32.1501 29.6 28.5001 33.25 24.0101 33.25C19.5201 33.25 15.8701 29.6 15.8701 25.11C15.8701 23.37 16.4401 21.69 17.5201 20.25C17.7701 19.92 17.7001 19.45 17.3701 19.2C17.0401 18.95 16.5701 19.02 16.3201 19.35C15.0401 21.05 14.3701 23.04 14.3701 25.11C14.3701 30.42 18.6901 34.75 24.0101 34.75C29.3301 34.75 33.6501 30.43 33.6501 25.11C33.6501 19.79 29.3101 15.48 24.0001 15.48Z" fill="white"/>
<path d="M26 28.6701C24.48 28.6701 23.25 27.4401 23.25 25.9201V24.5701C23.25 23.0501 24.48 21.8201 26 21.8201C27.52 21.8201 28.75 23.0501 28.75 24.5701V25.9201C28.75 27.4401 27.52 28.6701 26 28.6701ZM26 23.3301C25.31 23.3301 24.75 23.8901 24.75 24.5801V25.9301C24.75 26.6201 25.31 27.1801 26 27.1801C26.69 27.1801 27.25 26.6201 27.25 25.9301V24.5801C27.25 23.8901 26.69 23.3301 26 23.3301Z" fill="white"/>
</svg>
