<svg width="48" height="48" viewBox="0 0 48 48" fill="none" xmlns="http://www.w3.org/2000/svg">
<circle cx="24" cy="24" r="24" fill="white" fill-opacity="0.13"/>
<path d="M15.75 26.8417C16.6308 27.0213 17.4394 27.456 18.075 28.0917C18.7107 28.7273 19.1454 29.5359 19.325 30.4167M15.75 30.4166H15.7592M15.75 23.1289C17.6116 23.3359 19.3473 24.1703 20.6717 25.4947C21.9961 26.8192 22.8305 28.5548 23.0375 30.4164M26.75 30.4166H29.3167C30.3434 30.4166 30.8568 30.4166 31.249 30.2168C31.5939 30.041 31.8744 29.7605 32.0502 29.4156C32.25 29.0234 32.25 28.51 32.25 27.4833V20.5166C32.25 19.4898 32.25 18.9764 32.0502 18.5843C31.8744 18.2393 31.5939 17.9588 31.249 17.7831C30.8568 17.5833 30.3434 17.5833 29.3167 17.5833H17.5833C16.5708 17.5833 15.75 18.4041 15.75 19.4166" stroke="white" stroke-width="2" stroke-linecap="round" stroke-linejoin="round"/>
</svg>
