<svg width="48" height="48" viewBox="0 0 48 48" fill="none" xmlns="http://www.w3.org/2000/svg">
<circle cx="24" cy="24" r="24" fill="white" fill-opacity="0.13"/>
<path d="M24.55 32.5901C23.76 32.5901 22.89 32.3101 22.02 31.7601L19.1 29.9301C18.9 29.8101 18.67 29.7401 18.44 29.7401H17C14.58 29.7401 13.25 28.4101 13.25 25.9901V21.9901C13.25 19.5701 14.58 18.2401 17 18.2401H18.43C18.66 18.2401 18.89 18.1701 19.09 18.0501L22.01 16.2201C23.47 15.3101 24.89 15.1401 26.01 15.7601C27.13 16.3801 27.74 17.6701 27.74 19.4001V28.5701C27.74 30.2901 27.12 31.5901 26.01 32.2101C25.57 32.4701 25.07 32.5901 24.55 32.5901ZM17 19.7501C15.42 19.7501 14.75 20.4201 14.75 22.0001V26.0001C14.75 27.5801 15.42 28.2501 17 28.2501H18.43C18.95 28.2501 19.45 28.3901 19.89 28.6701L22.81 30.5001C23.77 31.1001 24.68 31.2601 25.29 30.9201C25.9 30.5801 26.25 29.7301 26.25 28.6001V19.4101C26.25 18.2701 25.9 17.4201 25.29 17.0901C24.68 16.7501 23.77 16.9001 22.81 17.5101L19.88 19.3301C19.45 19.6101 18.94 19.7501 18.43 19.7501H17Z" fill="white"/>
<path d="M29.9998 28.75C29.8398 28.75 29.6898 28.7 29.5498 28.6C29.2198 28.35 29.1498 27.88 29.3998 27.55C30.9698 25.46 30.9698 22.54 29.3998 20.45C29.1498 20.12 29.2198 19.65 29.5498 19.4C29.8798 19.15 30.3498 19.22 30.5998 19.55C32.5598 22.17 32.5598 25.83 30.5998 28.45C30.4498 28.65 30.2298 28.75 29.9998 28.75Z" fill="white"/>
<path d="M31.8299 31.25C31.6699 31.25 31.5199 31.2 31.3799 31.1C31.0499 30.85 30.9799 30.38 31.2299 30.05C33.8999 26.49 33.8999 21.51 31.2299 17.95C30.9799 17.62 31.0499 17.15 31.3799 16.9C31.7099 16.65 32.1799 16.72 32.4299 17.05C35.4999 21.14 35.4999 26.86 32.4299 30.95C32.2899 31.15 32.0599 31.25 31.8299 31.25Z" fill="white"/>
</svg>
